# Blender v2.92.0 OBJ File: ''
# www.blender.org
mtllib road-block.mtl
v -1.000000 -0.150000 -0.005000
v -1.000000 0.150000 -0.005000
v 1.000000 -0.150000 -0.005000
v 1.000000 0.150000 -0.005000
v -1.000000 -0.150000 0.005000
v -1.000000 0.150000 0.005000
v 1.000000 -0.150000 0.005000
v 1.000000 0.150000 0.005000
v 0.650000 -0.600000 -0.050000
v 0.647118 -0.600000 -0.020736
v 0.638582 -0.600000 0.007403
v 0.624720 -0.600000 0.033336
v 0.606066 -0.600000 0.056066
v 0.583336 -0.600000 0.074720
v 0.557402 -0.600000 0.088582
v 0.529264 -0.600000 0.097118
v 0.500000 -0.600000 0.100000
v 0.470736 -0.600000 0.097118
v 0.442598 -0.600000 0.088582
v 0.416664 -0.600000 0.074720
v 0.393934 -0.600000 0.056066
v 0.375280 -0.600000 0.033336
v 0.361418 -0.600000 0.007403
v 0.352882 -0.600000 -0.020736
v 0.350000 -0.600000 -0.050000
v 0.352882 -0.600000 -0.079264
v 0.361418 -0.600000 -0.107403
v 0.375280 -0.600000 -0.133336
v 0.393934 -0.600000 -0.156066
v 0.416665 -0.600000 -0.174720
v 0.442598 -0.600000 -0.188582
v 0.470737 -0.600000 -0.197118
v 0.500000 -0.600000 -0.200000
v 0.529264 -0.600000 -0.197118
v 0.557403 -0.600000 -0.188582
v 0.583336 -0.600000 -0.174720
v 0.606066 -0.600000 -0.156066
v 0.624721 -0.600000 -0.133335
v 0.638582 -0.600000 -0.107402
v 0.647118 -0.600000 -0.079263
v 0.500000 -0.500000 -0.050000
v 0.550000 -0.550000 -0.050000
v 0.550000 0.950000 -0.050000
v 0.549039 -0.550000 -0.040245
v 0.549039 0.950000 -0.040245
v 0.546194 -0.550000 -0.030866
v 0.546194 0.950000 -0.030866
v 0.541573 -0.550000 -0.022221
v 0.541573 0.950000 -0.022221
v 0.535355 -0.550000 -0.014645
v 0.535355 0.950000 -0.014645
v 0.527779 -0.550000 -0.008426
v 0.527779 0.950000 -0.008426
v 0.519134 -0.550000 -0.003806
v 0.519134 0.950000 -0.003806
v 0.509755 -0.550000 -0.000961
v 0.509755 0.950000 -0.000961
v 0.500000 -0.550000 0.000000
v 0.500000 0.950000 0.000000
v 0.490245 -0.550000 -0.000961
v 0.490245 0.950000 -0.000961
v 0.480866 -0.550000 -0.003806
v 0.480866 0.950000 -0.003806
v 0.472221 -0.550000 -0.008426
v 0.472221 0.950000 -0.008426
v 0.464645 -0.550000 -0.014645
v 0.464645 0.950000 -0.014645
v 0.458427 -0.550000 -0.022221
v 0.458427 0.950000 -0.022221
v 0.453806 -0.550000 -0.030866
v 0.453806 0.950000 -0.030866
v 0.450961 -0.550000 -0.040245
v 0.450961 0.950000 -0.040245
v 0.450000 -0.550000 -0.050000
v 0.450000 0.950000 -0.050000
v 0.450961 -0.550000 -0.059755
v 0.450961 0.950000 -0.059755
v 0.453806 -0.550000 -0.069134
v 0.453806 0.950000 -0.069134
v 0.458427 -0.550000 -0.077779
v 0.458427 0.950000 -0.077779
v 0.464645 -0.550000 -0.085355
v 0.464645 0.950000 -0.085355
v 0.472222 -0.550000 -0.091573
v 0.472222 0.950000 -0.091573
v 0.480866 -0.550000 -0.096194
v 0.480866 0.950000 -0.096194
v 0.490246 -0.550000 -0.099039
v 0.490246 0.950000 -0.099039
v 0.500000 -0.550000 -0.100000
v 0.500000 0.950000 -0.100000
v 0.509755 -0.550000 -0.099039
v 0.509755 0.950000 -0.099039
v 0.519134 -0.550000 -0.096194
v 0.519134 0.950000 -0.096194
v 0.527779 -0.550000 -0.091573
v 0.527779 0.950000 -0.091573
v 0.535355 -0.550000 -0.085355
v 0.535355 0.950000 -0.085355
v 0.541574 -0.550000 -0.077778
v 0.541574 0.950000 -0.077778
v 0.546194 -0.550000 -0.069134
v 0.546194 0.950000 -0.069134
v 0.549039 -0.550000 -0.059754
v 0.549039 0.950000 -0.059754
v -0.450000 -0.550000 -0.050000
v -0.450000 0.950000 -0.050000
v -0.450961 -0.550000 -0.040246
v -0.450961 0.950000 -0.040246
v -0.453806 -0.550000 -0.030866
v -0.453806 0.950000 -0.030866
v -0.458427 -0.550000 -0.022222
v -0.458427 0.950000 -0.022222
v -0.464645 -0.550000 -0.014645
v -0.464645 0.950000 -0.014645
v -0.472221 -0.550000 -0.008427
v -0.472221 0.950000 -0.008427
v -0.480866 -0.550000 -0.003806
v -0.480866 0.950000 -0.003806
v -0.490246 -0.550000 -0.000961
v -0.490246 0.950000 -0.000961
v -0.500000 -0.550000 -0.000000
v -0.500000 0.950000 -0.000000
v -0.509755 -0.550000 -0.000961
v -0.509755 0.950000 -0.000961
v -0.519134 -0.550000 -0.003806
v -0.519134 0.950000 -0.003806
v -0.527779 -0.550000 -0.008427
v -0.527779 0.950000 -0.008427
v -0.535355 -0.550000 -0.014645
v -0.535355 0.950000 -0.014645
v -0.541574 -0.550000 -0.022222
v -0.541574 0.950000 -0.022222
v -0.546194 -0.550000 -0.030866
v -0.546194 0.950000 -0.030866
v -0.549039 -0.550000 -0.040246
v -0.549039 0.950000 -0.040246
v -0.550000 -0.550000 -0.050000
v -0.550000 0.950000 -0.050000
v -0.549039 -0.550000 -0.059755
v -0.549039 0.950000 -0.059755
v -0.546194 -0.550000 -0.069134
v -0.546194 0.950000 -0.069134
v -0.541574 -0.550000 -0.077779
v -0.541574 0.950000 -0.077779
v -0.535355 -0.550000 -0.085355
v -0.535355 0.950000 -0.085355
v -0.527779 -0.550000 -0.091574
v -0.527779 0.950000 -0.091574
v -0.519134 -0.550000 -0.096194
v -0.519134 0.950000 -0.096194
v -0.509754 -0.550000 -0.099039
v -0.509754 0.950000 -0.099039
v -0.500000 -0.550000 -0.100000
v -0.500000 0.950000 -0.100000
v -0.490245 -0.550000 -0.099039
v -0.490245 0.950000 -0.099039
v -0.480866 -0.550000 -0.096194
v -0.480866 0.950000 -0.096194
v -0.472221 -0.550000 -0.091573
v -0.472221 0.950000 -0.091573
v -0.464645 -0.550000 -0.085355
v -0.464645 0.950000 -0.085355
v -0.458426 -0.550000 -0.077778
v -0.458426 0.950000 -0.077778
v -0.453806 -0.550000 -0.069134
v -0.453806 0.950000 -0.069134
v -0.450961 -0.550000 -0.059754
v -0.450961 0.950000 -0.059754
v -0.350000 -0.600000 -0.050000
v -0.352882 -0.600000 -0.020736
v -0.361418 -0.600000 0.007403
v -0.375280 -0.600000 0.033336
v -0.393934 -0.600000 0.056066
v -0.416664 -0.600000 0.074720
v -0.442598 -0.600000 0.088582
v -0.470736 -0.600000 0.097118
v -0.500000 -0.600000 0.100000
v -0.529264 -0.600000 0.097118
v -0.557402 -0.600000 0.088582
v -0.583336 -0.600000 0.074720
v -0.606066 -0.600000 0.056066
v -0.624720 -0.600000 0.033336
v -0.638582 -0.600000 0.007402
v -0.647118 -0.600000 -0.020737
v -0.650000 -0.600000 -0.050000
v -0.647118 -0.600000 -0.079264
v -0.638582 -0.600000 -0.107403
v -0.624720 -0.600000 -0.133336
v -0.606066 -0.600000 -0.156066
v -0.583336 -0.600000 -0.174721
v -0.557402 -0.600000 -0.188582
v -0.529263 -0.600000 -0.197118
v -0.500000 -0.600000 -0.200000
v -0.470736 -0.600000 -0.197118
v -0.442597 -0.600000 -0.188582
v -0.416664 -0.600000 -0.174720
v -0.393934 -0.600000 -0.156066
v -0.375279 -0.600000 -0.133335
v -0.361418 -0.600000 -0.107402
v -0.352882 -0.600000 -0.079263
v -0.500000 -0.500000 -0.050000
v -1.000000 0.550000 -0.005000
v -1.000000 0.850000 -0.005000
v 1.000000 0.550000 -0.005000
v 1.000000 0.850000 -0.005000
v -1.000000 0.550000 0.005000
v -1.000000 0.850000 0.005000
v 1.000000 0.550000 0.005000
v 1.000000 0.850000 0.005000
vt 0.375000 0.000000
vt 0.625000 0.000000
vt 0.625000 0.250000
vt 0.375000 0.250000
vt 0.625000 0.500000
vt 0.375000 0.500000
vt 0.625000 0.750000
vt 0.375000 0.750000
vt 0.625000 1.000000
vt 0.375000 1.000000
vt 0.125000 0.500000
vt 0.125000 0.750000
vt 0.875000 0.500000
vt 0.875000 0.750000
vt 0.250000 0.490000
vt 0.250000 0.250000
vt 0.296822 0.485388
vt 0.341844 0.471731
vt 0.383337 0.449553
vt 0.419706 0.419706
vt 0.449553 0.383337
vt 0.471731 0.341844
vt 0.485388 0.296822
vt 0.490000 0.250000
vt 0.485388 0.203178
vt 0.471731 0.158156
vt 0.449553 0.116663
vt 0.419706 0.080294
vt 0.383337 0.050447
vt 0.341844 0.028269
vt 0.296822 0.014612
vt 0.250000 0.010000
vt 0.203178 0.014612
vt 0.158156 0.028269
vt 0.116663 0.050447
vt 0.080294 0.080294
vt 0.050447 0.116663
vt 0.028269 0.158156
vt 0.014611 0.203179
vt 0.010000 0.250000
vt 0.014612 0.296822
vt 0.028269 0.341844
vt 0.050447 0.383337
vt 0.080295 0.419706
vt 0.116663 0.449553
vt 0.158156 0.471731
vt 0.750000 0.490000
vt 0.796822 0.485388
vt 0.841844 0.471731
vt 0.883337 0.449553
vt 0.919706 0.419706
vt 0.949553 0.383337
vt 0.971731 0.341844
vt 0.985388 0.296822
vt 0.990000 0.250000
vt 0.985388 0.203178
vt 0.971731 0.158156
vt 0.949553 0.116663
vt 0.919706 0.080294
vt 0.883337 0.050447
vt 0.841844 0.028269
vt 0.796822 0.014612
vt 0.750000 0.010000
vt 0.703178 0.014612
vt 0.658156 0.028269
vt 0.616663 0.050447
vt 0.580294 0.080294
vt 0.550447 0.116663
vt 0.528269 0.158156
vt 0.514611 0.203179
vt 0.510000 0.250000
vt 0.514612 0.296822
vt 0.528269 0.341844
vt 0.550447 0.383337
vt 0.580295 0.419706
vt 0.616663 0.449553
vt 0.658156 0.471731
vt 0.703179 0.485389
vt 0.203179 0.485389
vt 1.000000 0.500000
vt 1.000000 1.000000
vt 0.968750 1.000000
vt 0.968750 0.500000
vt 0.937500 1.000000
vt 0.937500 0.500000
vt 0.906250 1.000000
vt 0.906250 0.500000
vt 0.875000 1.000000
vt 0.875000 0.500000
vt 0.843750 1.000000
vt 0.843750 0.500000
vt 0.812500 1.000000
vt 0.812500 0.500000
vt 0.781250 1.000000
vt 0.781250 0.500000
vt 0.750000 1.000000
vt 0.750000 0.500000
vt 0.718750 1.000000
vt 0.718750 0.500000
vt 0.687500 1.000000
vt 0.687500 0.500000
vt 0.656250 1.000000
vt 0.656250 0.500000
vt 0.625000 1.000000
vt 0.625000 0.500000
vt 0.593750 1.000000
vt 0.593750 0.500000
vt 0.562500 1.000000
vt 0.562500 0.500000
vt 0.531250 1.000000
vt 0.531250 0.500000
vt 0.500000 1.000000
vt 0.500000 0.500000
vt 0.468750 1.000000
vt 0.468750 0.500000
vt 0.437500 1.000000
vt 0.437500 0.500000
vt 0.406250 1.000000
vt 0.406250 0.500000
vt 0.375000 1.000000
vt 0.375000 0.500000
vt 0.343750 1.000000
vt 0.343750 0.500000
vt 0.312500 1.000000
vt 0.312500 0.500000
vt 0.281250 1.000000
vt 0.281250 0.500000
vt 0.250000 1.000000
vt 0.250000 0.500000
vt 0.218750 1.000000
vt 0.218750 0.500000
vt 0.187500 1.000000
vt 0.187500 0.500000
vt 0.156250 1.000000
vt 0.156250 0.500000
vt 0.125000 1.000000
vt 0.125000 0.500000
vt 0.093750 1.000000
vt 0.093750 0.500000
vt 0.062500 1.000000
vt 0.062500 0.500000
vt 0.296822 0.485388
vt 0.250000 0.490000
vt 0.203179 0.485389
vt 0.158156 0.471731
vt 0.116663 0.449553
vt 0.080295 0.419706
vt 0.050447 0.383337
vt 0.028269 0.341844
vt 0.014612 0.296822
vt 0.010000 0.250000
vt 0.014611 0.203179
vt 0.028269 0.158156
vt 0.050447 0.116663
vt 0.080294 0.080294
vt 0.116663 0.050447
vt 0.158156 0.028269
vt 0.203178 0.014612
vt 0.250000 0.010000
vt 0.296822 0.014612
vt 0.341844 0.028269
vt 0.383337 0.050447
vt 0.419706 0.080294
vt 0.449553 0.116663
vt 0.471731 0.158156
vt 0.485388 0.203178
vt 0.490000 0.250000
vt 0.485388 0.296822
vt 0.471731 0.341844
vt 0.449553 0.383337
vt 0.419706 0.419706
vt 0.383337 0.449553
vt 0.341844 0.471731
vt 0.031250 1.000000
vt 0.031250 0.500000
vt 0.000000 1.000000
vt 0.000000 0.500000
vt 0.750000 0.490000
vt 0.796822 0.485388
vt 0.841844 0.471731
vt 0.883337 0.449553
vt 0.919706 0.419706
vt 0.949553 0.383337
vt 0.971731 0.341844
vt 0.985388 0.296822
vt 0.990000 0.250000
vt 0.985388 0.203178
vt 0.971731 0.158156
vt 0.949553 0.116663
vt 0.919706 0.080294
vt 0.883337 0.050447
vt 0.841844 0.028269
vt 0.796822 0.014612
vt 0.750000 0.010000
vt 0.703178 0.014612
vt 0.658156 0.028269
vt 0.616663 0.050447
vt 0.580294 0.080294
vt 0.550447 0.116663
vt 0.528269 0.158156
vt 0.514611 0.203179
vt 0.510000 0.250000
vt 0.514612 0.296822
vt 0.528269 0.341844
vt 0.550447 0.383337
vt 0.580295 0.419706
vt 0.616663 0.449553
vt 0.658156 0.471731
vt 0.703179 0.485389
vt 1.000000 0.500000
vt 1.000000 1.000000
vt 0.968750 1.000000
vt 0.968750 0.500000
vt 0.937500 1.000000
vt 0.937500 0.500000
vt 0.906250 1.000000
vt 0.906250 0.500000
vt 0.875000 1.000000
vt 0.875000 0.500000
vt 0.843750 1.000000
vt 0.843750 0.500000
vt 0.812500 1.000000
vt 0.812500 0.500000
vt 0.781250 1.000000
vt 0.781250 0.500000
vt 0.750000 1.000000
vt 0.750000 0.500000
vt 0.718750 1.000000
vt 0.718750 0.500000
vt 0.687500 1.000000
vt 0.687500 0.500000
vt 0.656250 1.000000
vt 0.656250 0.500000
vt 0.625000 1.000000
vt 0.625000 0.500000
vt 0.593750 1.000000
vt 0.593750 0.500000
vt 0.562500 1.000000
vt 0.562500 0.500000
vt 0.531250 1.000000
vt 0.531250 0.500000
vt 0.500000 1.000000
vt 0.500000 0.500000
vt 0.468750 1.000000
vt 0.468750 0.500000
vt 0.437500 1.000000
vt 0.437500 0.500000
vt 0.406250 1.000000
vt 0.406250 0.500000
vt 0.375000 1.000000
vt 0.375000 0.500000
vt 0.343750 1.000000
vt 0.343750 0.500000
vt 0.312500 1.000000
vt 0.312500 0.500000
vt 0.281250 1.000000
vt 0.281250 0.500000
vt 0.250000 1.000000
vt 0.250000 0.500000
vt 0.218750 1.000000
vt 0.218750 0.500000
vt 0.187500 1.000000
vt 0.187500 0.500000
vt 0.156250 1.000000
vt 0.156250 0.500000
vt 0.125000 1.000000
vt 0.125000 0.500000
vt 0.093750 1.000000
vt 0.093750 0.500000
vt 0.062500 1.000000
vt 0.062500 0.500000
vt 0.296822 0.485388
vt 0.250000 0.490000
vt 0.203179 0.485389
vt 0.158156 0.471731
vt 0.116663 0.449553
vt 0.080295 0.419706
vt 0.050447 0.383337
vt 0.028269 0.341844
vt 0.014612 0.296822
vt 0.010000 0.250000
vt 0.014611 0.203179
vt 0.028269 0.158156
vt 0.050447 0.116663
vt 0.080294 0.080294
vt 0.116663 0.050447
vt 0.158156 0.028269
vt 0.203178 0.014612
vt 0.250000 0.010000
vt 0.296822 0.014612
vt 0.341844 0.028269
vt 0.383337 0.050447
vt 0.419706 0.080294
vt 0.449553 0.116663
vt 0.471731 0.158156
vt 0.485388 0.203178
vt 0.490000 0.250000
vt 0.485388 0.296822
vt 0.471731 0.341844
vt 0.449553 0.383337
vt 0.419706 0.419706
vt 0.383337 0.449553
vt 0.341844 0.471731
vt 0.031250 1.000000
vt 0.031250 0.500000
vt 0.000000 1.000000
vt 0.000000 0.500000
vt 0.750000 0.490000
vt 0.796822 0.485388
vt 0.841844 0.471731
vt 0.883337 0.449553
vt 0.919706 0.419706
vt 0.949553 0.383337
vt 0.971731 0.341844
vt 0.985388 0.296822
vt 0.990000 0.250000
vt 0.985388 0.203178
vt 0.971731 0.158156
vt 0.949553 0.116663
vt 0.919706 0.080294
vt 0.883337 0.050447
vt 0.841844 0.028269
vt 0.796822 0.014612
vt 0.750000 0.010000
vt 0.703178 0.014612
vt 0.658156 0.028269
vt 0.616663 0.050447
vt 0.580294 0.080294
vt 0.550447 0.116663
vt 0.528269 0.158156
vt 0.514611 0.203179
vt 0.510000 0.250000
vt 0.514612 0.296822
vt 0.528269 0.341844
vt 0.550447 0.383337
vt 0.580295 0.419706
vt 0.616663 0.449553
vt 0.658156 0.471731
vt 0.703179 0.485389
vt 0.250000 0.490000
vt 0.250000 0.250000
vt 0.296822 0.485388
vt 0.341844 0.471731
vt 0.383337 0.449553
vt 0.419706 0.419706
vt 0.449553 0.383337
vt 0.471731 0.341844
vt 0.485388 0.296822
vt 0.490000 0.250000
vt 0.485388 0.203178
vt 0.471731 0.158156
vt 0.449553 0.116663
vt 0.419706 0.080294
vt 0.383337 0.050447
vt 0.341844 0.028269
vt 0.296822 0.014612
vt 0.250000 0.010000
vt 0.203178 0.014612
vt 0.158156 0.028269
vt 0.116663 0.050447
vt 0.080294 0.080294
vt 0.050447 0.116663
vt 0.028269 0.158156
vt 0.014611 0.203179
vt 0.010000 0.250000
vt 0.014612 0.296822
vt 0.028269 0.341844
vt 0.050447 0.383337
vt 0.080295 0.419706
vt 0.116663 0.449553
vt 0.158156 0.471731
vt 0.750000 0.490000
vt 0.796822 0.485388
vt 0.841844 0.471731
vt 0.883337 0.449553
vt 0.919706 0.419706
vt 0.949553 0.383337
vt 0.971731 0.341844
vt 0.985388 0.296822
vt 0.990000 0.250000
vt 0.985388 0.203178
vt 0.971731 0.158156
vt 0.949553 0.116663
vt 0.919706 0.080294
vt 0.883337 0.050447
vt 0.841844 0.028269
vt 0.796822 0.014612
vt 0.750000 0.010000
vt 0.703178 0.014612
vt 0.658156 0.028269
vt 0.616663 0.050447
vt 0.580294 0.080294
vt 0.550447 0.116663
vt 0.528269 0.158156
vt 0.514611 0.203179
vt 0.510000 0.250000
vt 0.514612 0.296822
vt 0.528269 0.341844
vt 0.550447 0.383337
vt 0.580295 0.419706
vt 0.616663 0.449553
vt 0.658156 0.471731
vt 0.703179 0.485389
vt 0.203179 0.485389
vt 0.375000 0.000000
vt 0.625000 0.000000
vt 0.625000 0.250000
vt 0.375000 0.250000
vt 0.625000 0.500000
vt 0.375000 0.500000
vt 0.625000 0.750000
vt 0.375000 0.750000
vt 0.625000 1.000000
vt 0.375000 1.000000
vt 0.125000 0.500000
vt 0.125000 0.750000
vt 0.875000 0.500000
vt 0.875000 0.750000
vn 0.0000 0.0000 -1.0000
vn 1.0000 0.0000 0.0000
vn -0.0000 0.0000 1.0000
vn -1.0000 0.0000 0.0000
vn 0.0000 -1.0000 0.0000
vn 0.0000 1.0000 0.0000
vn 0.5539 0.8308 0.0546
vn 0.5326 0.8308 0.1616
vn 0.4908 0.8308 0.2624
vn 0.4302 0.8308 0.3531
vn 0.3531 0.8308 0.4302
vn 0.2624 0.8308 0.4908
vn 0.1616 0.8308 0.5326
vn 0.0546 0.8308 0.5539
vn -0.0546 0.8308 0.5539
vn -0.1616 0.8308 0.5326
vn -0.2624 0.8308 0.4908
vn -0.3531 0.8308 0.4302
vn -0.4302 0.8308 0.3531
vn -0.4908 0.8308 0.2624
vn -0.5326 0.8308 0.1616
vn -0.5539 0.8308 0.0546
vn -0.5539 0.8308 -0.0546
vn -0.5326 0.8308 -0.1616
vn -0.4908 0.8308 -0.2624
vn -0.4302 0.8308 -0.3531
vn -0.3531 0.8308 -0.4302
vn -0.2624 0.8308 -0.4908
vn -0.1616 0.8308 -0.5326
vn -0.0546 0.8308 -0.5539
vn 0.0546 0.8308 -0.5539
vn 0.1616 0.8308 -0.5326
vn 0.2624 0.8308 -0.4908
vn 0.3531 0.8308 -0.4302
vn 0.4302 0.8308 -0.3531
vn 0.4908 0.8308 -0.2624
vn 0.5326 0.8308 -0.1616
vn 0.5539 0.8308 -0.0546
vn 0.9952 0.0000 0.0980
vn 0.9569 0.0000 0.2903
vn 0.8819 0.0000 0.4714
vn 0.7730 0.0000 0.6344
vn 0.6344 0.0000 0.7730
vn 0.4714 0.0000 0.8819
vn 0.2903 0.0000 0.9569
vn 0.0980 0.0000 0.9952
vn -0.0980 0.0000 0.9952
vn -0.2903 0.0000 0.9569
vn -0.4714 0.0000 0.8819
vn -0.6344 0.0000 0.7730
vn -0.7730 0.0000 0.6344
vn -0.8819 0.0000 0.4714
vn -0.9569 0.0000 0.2903
vn -0.9952 0.0000 0.0980
vn -0.9952 0.0000 -0.0980
vn -0.9569 0.0000 -0.2903
vn -0.8819 0.0000 -0.4714
vn -0.7730 0.0000 -0.6344
vn -0.6344 0.0000 -0.7730
vn -0.4714 0.0000 -0.8819
vn -0.2903 0.0000 -0.9569
vn -0.0980 0.0000 -0.9952
vn 0.0980 0.0000 -0.9952
vn 0.2903 0.0000 -0.9569
vn 0.4714 0.0000 -0.8819
vn 0.6344 0.0000 -0.7730
vn 0.7730 0.0000 -0.6344
vn 0.8819 0.0000 -0.4714
vn 0.9569 0.0000 -0.2903
vn 0.9952 0.0000 -0.0980
usemtl None
s off
f 1/1/1 2/2/1 4/3/1 3/4/1
f 3/4/2 4/3/2 8/5/2 7/6/2
f 7/6/3 8/5/3 6/7/3 5/8/3
f 5/8/4 6/7/4 2/9/4 1/10/4
f 3/11/5 7/6/5 5/8/5 1/12/5
f 8/5/6 4/13/6 2/14/6 6/7/6
f 9/15/7 41/16/7 10/17/7
f 10/17/8 41/16/8 11/18/8
f 11/18/9 41/16/9 12/19/9
f 12/19/10 41/16/10 13/20/10
f 13/20/11 41/16/11 14/21/11
f 14/21/12 41/16/12 15/22/12
f 15/22/13 41/16/13 16/23/13
f 16/23/14 41/16/14 17/24/14
f 17/24/15 41/16/15 18/25/15
f 18/25/16 41/16/16 19/26/16
f 19/26/17 41/16/17 20/27/17
f 20/27/18 41/16/18 21/28/18
f 21/28/19 41/16/19 22/29/19
f 22/29/20 41/16/20 23/30/20
f 23/30/21 41/16/21 24/31/21
f 24/31/22 41/16/22 25/32/22
f 25/32/23 41/16/23 26/33/23
f 26/33/24 41/16/24 27/34/24
f 27/34/25 41/16/25 28/35/25
f 28/35/26 41/16/26 29/36/26
f 29/36/27 41/16/27 30/37/27
f 30/37/28 41/16/28 31/38/28
f 31/38/29 41/16/29 32/39/29
f 32/39/30 41/16/30 33/40/30
f 33/40/31 41/16/31 34/41/31
f 34/41/32 41/16/32 35/42/32
f 35/42/33 41/16/33 36/43/33
f 36/43/34 41/16/34 37/44/34
f 37/44/35 41/16/35 38/45/35
f 38/45/36 41/16/36 39/46/36
f 9/47/5 10/48/5 11/49/5 12/50/5 13/51/5 14/52/5 15/53/5 16/54/5 17/55/5 18/56/5 19/57/5 20/58/5 21/59/5 22/60/5 23/61/5 24/62/5 25/63/5 26/64/5 27/65/5 28/66/5 29/67/5 30/68/5 31/69/5 32/70/5 33/71/5 34/72/5 35/73/5 36/74/5 37/75/5 38/76/5 39/77/5 40/78/5
f 39/46/37 41/16/37 40/79/37
f 40/79/38 41/16/38 9/15/38
f 42/80/39 43/81/39 45/82/39 44/83/39
f 44/83/40 45/82/40 47/84/40 46/85/40
f 46/85/41 47/84/41 49/86/41 48/87/41
f 48/87/42 49/86/42 51/88/42 50/89/42
f 50/89/43 51/88/43 53/90/43 52/91/43
f 52/91/44 53/90/44 55/92/44 54/93/44
f 54/93/45 55/92/45 57/94/45 56/95/45
f 56/95/46 57/94/46 59/96/46 58/97/46
f 58/97/47 59/96/47 61/98/47 60/99/47
f 60/99/48 61/98/48 63/100/48 62/101/48
f 62/101/49 63/100/49 65/102/49 64/103/49
f 64/103/50 65/102/50 67/104/50 66/105/50
f 66/105/51 67/104/51 69/106/51 68/107/51
f 68/107/52 69/106/52 71/108/52 70/109/52
f 70/109/53 71/108/53 73/110/53 72/111/53
f 72/111/54 73/110/54 75/112/54 74/113/54
f 74/113/55 75/112/55 77/114/55 76/115/55
f 76/115/56 77/114/56 79/116/56 78/117/56
f 78/117/57 79/116/57 81/118/57 80/119/57
f 80/119/58 81/118/58 83/120/58 82/121/58
f 82/121/59 83/120/59 85/122/59 84/123/59
f 84/123/60 85/122/60 87/124/60 86/125/60
f 86/125/61 87/124/61 89/126/61 88/127/61
f 88/127/62 89/126/62 91/128/62 90/129/62
f 90/129/63 91/128/63 93/130/63 92/131/63
f 92/131/64 93/130/64 95/132/64 94/133/64
f 94/133/65 95/132/65 97/134/65 96/135/65
f 96/135/66 97/134/66 99/136/66 98/137/66
f 98/137/67 99/136/67 101/138/67 100/139/67
f 100/139/68 101/138/68 103/140/68 102/141/68
f 45/142/6 43/143/6 105/144/6 103/145/6 101/146/6 99/147/6 97/148/6 95/149/6 93/150/6 91/151/6 89/152/6 87/153/6 85/154/6 83/155/6 81/156/6 79/157/6 77/158/6 75/159/6 73/160/6 71/161/6 69/162/6 67/163/6 65/164/6 63/165/6 61/166/6 59/167/6 57/168/6 55/169/6 53/170/6 51/171/6 49/172/6 47/173/6
f 102/141/69 103/140/69 105/174/69 104/175/69
f 104/175/70 105/174/70 43/176/70 42/177/70
f 42/178/5 44/179/5 46/180/5 48/181/5 50/182/5 52/183/5 54/184/5 56/185/5 58/186/5 60/187/5 62/188/5 64/189/5 66/190/5 68/191/5 70/192/5 72/193/5 74/194/5 76/195/5 78/196/5 80/197/5 82/198/5 84/199/5 86/200/5 88/201/5 90/202/5 92/203/5 94/204/5 96/205/5 98/206/5 100/207/5 102/208/5 104/209/5
f 106/210/39 107/211/39 109/212/39 108/213/39
f 108/213/40 109/212/40 111/214/40 110/215/40
f 110/215/41 111/214/41 113/216/41 112/217/41
f 112/217/42 113/216/42 115/218/42 114/219/42
f 114/219/43 115/218/43 117/220/43 116/221/43
f 116/221/44 117/220/44 119/222/44 118/223/44
f 118/223/45 119/222/45 121/224/45 120/225/45
f 120/225/46 121/224/46 123/226/46 122/227/46
f 122/227/47 123/226/47 125/228/47 124/229/47
f 124/229/48 125/228/48 127/230/48 126/231/48
f 126/231/49 127/230/49 129/232/49 128/233/49
f 128/233/50 129/232/50 131/234/50 130/235/50
f 130/235/51 131/234/51 133/236/51 132/237/51
f 132/237/52 133/236/52 135/238/52 134/239/52
f 134/239/53 135/238/53 137/240/53 136/241/53
f 136/241/54 137/240/54 139/242/54 138/243/54
f 138/243/55 139/242/55 141/244/55 140/245/55
f 140/245/56 141/244/56 143/246/56 142/247/56
f 142/247/57 143/246/57 145/248/57 144/249/57
f 144/249/58 145/248/58 147/250/58 146/251/58
f 146/251/59 147/250/59 149/252/59 148/253/59
f 148/253/60 149/252/60 151/254/60 150/255/60
f 150/255/61 151/254/61 153/256/61 152/257/61
f 152/257/62 153/256/62 155/258/62 154/259/62
f 154/259/63 155/258/63 157/260/63 156/261/63
f 156/261/64 157/260/64 159/262/64 158/263/64
f 158/263/65 159/262/65 161/264/65 160/265/65
f 160/265/66 161/264/66 163/266/66 162/267/66
f 162/267/67 163/266/67 165/268/67 164/269/67
f 164/269/68 165/268/68 167/270/68 166/271/68
f 109/272/6 107/273/6 169/274/6 167/275/6 165/276/6 163/277/6 161/278/6 159/279/6 157/280/6 155/281/6 153/282/6 151/283/6 149/284/6 147/285/6 145/286/6 143/287/6 141/288/6 139/289/6 137/290/6 135/291/6 133/292/6 131/293/6 129/294/6 127/295/6 125/296/6 123/297/6 121/298/6 119/299/6 117/300/6 115/301/6 113/302/6 111/303/6
f 166/271/69 167/270/69 169/304/69 168/305/69
f 168/305/70 169/304/70 107/306/70 106/307/70
f 106/308/5 108/309/5 110/310/5 112/311/5 114/312/5 116/313/5 118/314/5 120/315/5 122/316/5 124/317/5 126/318/5 128/319/5 130/320/5 132/321/5 134/322/5 136/323/5 138/324/5 140/325/5 142/326/5 144/327/5 146/328/5 148/329/5 150/330/5 152/331/5 154/332/5 156/333/5 158/334/5 160/335/5 162/336/5 164/337/5 166/338/5 168/339/5
f 170/340/7 202/341/7 171/342/7
f 171/342/8 202/341/8 172/343/8
f 172/343/9 202/341/9 173/344/9
f 173/344/10 202/341/10 174/345/10
f 174/345/11 202/341/11 175/346/11
f 175/346/12 202/341/12 176/347/12
f 176/347/13 202/341/13 177/348/13
f 177/348/14 202/341/14 178/349/14
f 178/349/15 202/341/15 179/350/15
f 179/350/16 202/341/16 180/351/16
f 180/351/17 202/341/17 181/352/17
f 181/352/18 202/341/18 182/353/18
f 182/353/19 202/341/19 183/354/19
f 183/354/20 202/341/20 184/355/20
f 184/355/21 202/341/21 185/356/21
f 185/356/22 202/341/22 186/357/22
f 186/357/23 202/341/23 187/358/23
f 187/358/24 202/341/24 188/359/24
f 188/359/25 202/341/25 189/360/25
f 189/360/26 202/341/26 190/361/26
f 190/361/27 202/341/27 191/362/27
f 191/362/28 202/341/28 192/363/28
f 192/363/29 202/341/29 193/364/29
f 193/364/30 202/341/30 194/365/30
f 194/365/31 202/341/31 195/366/31
f 195/366/32 202/341/32 196/367/32
f 196/367/33 202/341/33 197/368/33
f 197/368/34 202/341/34 198/369/34
f 198/369/35 202/341/35 199/370/35
f 199/370/36 202/341/36 200/371/36
f 170/372/5 171/373/5 172/374/5 173/375/5 174/376/5 175/377/5 176/378/5 177/379/5 178/380/5 179/381/5 180/382/5 181/383/5 182/384/5 183/385/5 184/386/5 185/387/5 186/388/5 187/389/5 188/390/5 189/391/5 190/392/5 191/393/5 192/394/5 193/395/5 194/396/5 195/397/5 196/398/5 197/399/5 198/400/5 199/401/5 200/402/5 201/403/5
f 200/371/37 202/341/37 201/404/37
f 201/404/38 202/341/38 170/340/38
f 203/405/1 204/406/1 206/407/1 205/408/1
f 205/408/2 206/407/2 210/409/2 209/410/2
f 209/410/3 210/409/3 208/411/3 207/412/3
f 207/412/4 208/411/4 204/413/4 203/414/4
f 205/415/5 209/410/5 207/412/5 203/416/5
f 210/409/6 206/417/6 204/418/6 208/411/6
